<?xml version="1.0" encoding="utf-8"?>
<!-- Generator: Adobe Illustrator 24.0.1, SVG Export Plug-In . SVG Version: 6.00 Build 0)  -->
<svg version="1.1" id="Camada_1" xmlns="http://www.w3.org/2000/svg" xmlns:xlink="http://www.w3.org/1999/xlink" x="0px" y="0px"
	 viewBox="0 0 21.9 20" style="enable-background:new 0 0 21.9 20;" xml:space="preserve">
<style type="text/css">
	.st0{fill:#E87288;}
	.st1{fill:#141414;}
	.st2{fill:#EA1F5A;}
</style>
<g id="Grupo_372" transform="translate(-78.991 -59.396)">
	<g id="microphone" transform="translate(58.17 57.635)">
		<path id="Caminho_1670" class="st0" d="M37.1,8.5c1.3-1.8,0.9-4.3-0.9-5.6c-1.8-1.3-4.3-0.9-5.6,0.9c-0.1,0.1-0.1,0.2-0.2,0.2
			c-0.4,0.8-0.5,1.7-0.3,2.5l4.7,3.2C35.7,9.6,36.5,9.2,37.1,8.5L37.1,8.5z"/>
		<path id="Caminho_1671" class="st1" d="M34.9,10.1c-0.1,0-0.2,0-0.2-0.1l-4.7-3.2c-0.1-0.1-0.1-0.1-0.2-0.2
			c-0.2-1-0.1-1.9,0.4-2.8c1.3-2.1,4.1-2.7,6.2-1.3c2,1.4,2.5,4.2,1.1,6.2C36.8,9.4,35.9,9.9,34.9,10.1
			C34.9,10.1,34.9,10.1,34.9,10.1L34.9,10.1z M30.5,6.3l4.4,3c0.7-0.1,1.4-0.5,1.8-1.1c1.2-1.7,0.8-4-0.9-5.2
			c-1.7-1.1-4-0.6-5.1,1.1C30.5,4.9,30.4,5.6,30.5,6.3L30.5,6.3z M37.1,8.5L37.1,8.5z"/>
		<path id="Caminho_1672" class="st2" d="M31.6,2.9c-0.4,0.3-0.8,0.7-1.1,1.1l6.6,4.5c0.3-0.4,0.5-0.9,0.6-1.4L31.6,2.9z"/>
		<path id="Caminho_1673" class="st1" d="M37.1,8.9c-0.1,0-0.2,0-0.2-0.1l-6.6-4.5c-0.2-0.1-0.2-0.4-0.1-0.5c0,0,0,0,0,0
			c0.3-0.5,0.7-0.9,1.2-1.2c0.1-0.1,0.3-0.1,0.4,0l6.1,4.2C38,6.9,38.1,7,38.1,7.2c-0.1,0.5-0.4,1.1-0.7,1.5
			C37.3,8.8,37.3,8.8,37.1,8.9C37.1,8.9,37.1,8.9,37.1,8.9L37.1,8.9z M31,3.9L37,8c0.1-0.2,0.2-0.5,0.3-0.7l-5.7-3.9
			C31.4,3.5,31.2,3.7,31,3.9L31,3.9z"/>
		<path id="Caminho_1674" class="st1" d="M21.2,21.8c-0.2,0-0.4-0.2-0.4-0.4c0-0.1,0.1-0.2,0.2-0.3c0.5-0.3,1-0.5,1.5-0.7
			c0.8-0.2,1.6-0.6,2-1.3l1.7-2.5c0.1-0.2,0.4-0.2,0.5-0.1c0.2,0.1,0.2,0.3,0.1,0.5l-1.7,2.5c-0.6,0.9-1.5,1.5-2.5,1.7
			c-0.4,0.1-0.9,0.3-1.2,0.5C21.4,21.8,21.3,21.8,21.2,21.8z"/>
		<path id="Caminho_1675" class="st2" d="M34.9,9.7l-4.7-3.2l-1.1,2l4.4,3L34.9,9.7z"/>
		<path id="Caminho_1676" class="st1" d="M33.4,11.9c-0.1,0-0.2,0-0.2-0.1l-4.4-3c-0.2-0.1-0.2-0.3-0.1-0.5l1.1-2
			c0.1-0.2,0.3-0.2,0.5-0.1c0,0,0,0,0,0l4.7,3.2c0.2,0.1,0.2,0.4,0.1,0.5c0,0,0,0,0,0l-1.4,1.8C33.7,11.9,33.5,11.9,33.4,11.9
			L33.4,11.9z M29.5,8.4l3.8,2.6l1-1.2l-4-2.7L29.5,8.4z"/>
		<path id="Caminho_1677" class="st2" d="M29,8.5l-4,7.1c-0.5,0.9-0.2,2,0.6,2.6l0.2,0.1c0.8,0.6,2,0.4,2.6-0.4l5.1-6.3L29,8.5z"/>
		<path id="Caminho_1678" class="st1" d="M26.8,19c-0.5,0-0.9-0.1-1.3-0.4l-0.2-0.1c-1-0.7-1.3-2-0.7-3.1l4-7
			c0.1-0.2,0.3-0.2,0.5-0.1c0,0,0,0,0,0l4.4,3c0.2,0.1,0.2,0.4,0.1,0.5c0,0,0,0,0,0l-5.1,6.3C28.2,18.6,27.5,19,26.8,19L26.8,19z
			 M29.1,9.1l-3.8,6.7c-0.4,0.7-0.2,1.6,0.5,2.1l0.2,0.1c0.7,0.5,1.6,0.3,2.1-0.3l4.8-6L29.1,9.1z"/>
	</g>
</g>
</svg>
