<?xml version="1.0" encoding="utf-8"?>
<!-- Generator: Adobe Illustrator 24.0.1, SVG Export Plug-In . SVG Version: 6.00 Build 0)  -->
<svg version="1.1" id="Grupo_355" xmlns="http://www.w3.org/2000/svg" xmlns:xlink="http://www.w3.org/1999/xlink" x="0px" y="0px"
	 viewBox="0 0 17.7 17.2" style="enable-background:new 0 0 17.7 17.2;" xml:space="preserve">
<style type="text/css">
	.st0{fill-rule:evenodd;clip-rule:evenodd;fill:#E87288;}
	.st1{fill-rule:evenodd;clip-rule:evenodd;fill:#EA1F5A;}
</style>
<g id="vynil" transform="translate(0 0)">
	<g id="Grupo_354" transform="translate(0.335 0.335)">
		<path id="Caminho_1698" class="st0" d="M8.3,5.4c1.6,0,2.9,1.3,2.9,2.9c0,1.6-1.3,2.9-2.9,2.9c-1.6,0-2.9-1.3-2.9-2.9
			c0-0.3,0.1-0.6,0.2-1C5.9,6.1,7,5.4,8.3,5.4z M8.3,0C3.7,0,0,3.7,0,8.2s3.7,8.3,8.2,8.3c4.6,0,8.3-3.7,8.3-8.2c0,0,0,0,0,0
			C16.5,3.7,12.8,0,8.3,0z"/>
		<path id="Caminho_1699" class="st1" d="M11.5,7.1c-0.6-1.8-2.6-2.7-4.3-2.1c-1,0.3-1.7,1.1-2.1,2.1H11.5z"/>
		<path id="Caminho_1700" class="st0" d="M11,7.3H5.5c-0.2,0.6-0.2,1.3,0,1.9H11C11.2,8.6,11.2,7.9,11,7.3z"/>
		<path id="Caminho_1701" class="st1" d="M11.5,9.4H5.1c0.6,1.8,2.6,2.7,4.3,2.1C10.4,11.1,11.1,10.3,11.5,9.4z"/>
	</g>
	<path id="Caminho_1702" d="M14.7,2.5C13.1,0.9,10.9,0,8.6,0c-1.4,0-2.7,0.3-4,1C4.5,1.1,4.4,1.3,4.5,1.4s0.3,0.2,0.5,0.1
		c3.9-2,8.7-0.5,10.7,3.4s0.5,8.7-3.4,10.7s-8.7,0.5-10.7-3.4C1,11.1,0.7,9.9,0.7,8.6C0.7,6.5,1.5,4.5,3,3c0.1-0.1,0.1-0.3,0-0.5
		s-0.3-0.1-0.5,0c-3.4,3.4-3.4,8.8,0,12.1s8.8,3.4,12.1,0C18,11.3,18,5.9,14.7,2.5C14.7,2.5,14.7,2.5,14.7,2.5z"/>
	<path id="Caminho_1703" d="M15.4,10.8c0.2,0,0.4-0.1,0.4-0.2c0,0,0,0,0,0c0.2-0.6,0.3-1.3,0.3-2c0-0.2-0.2-0.3-0.3-0.3
		c-0.2,0-0.3,0.2-0.3,0.3c0,0.6-0.1,1.2-0.2,1.8C15.1,10.6,15.3,10.7,15.4,10.8L15.4,10.8z"/>
	<path id="Caminho_1706" d="M8.9,3.1c0-0.2-0.1-0.3-0.3-0.3h0c-3.2,0-5.8,2.6-5.8,5.8c0,0.2,0.1,0.3,0.3,0.3c0.2,0,0.3-0.1,0.3-0.3
		c0-2.9,2.3-5.2,5.2-5.2C8.8,3.4,8.9,3.3,8.9,3.1C8.9,3.1,8.9,3.1,8.9,3.1z"/>
	<path id="Caminho_1707" d="M14.1,8.3c-0.2,0-0.3,0.1-0.3,0.3l0,0c0,2.9-2.3,5.2-5.2,5.2c-0.2,0-0.3,0.1-0.3,0.3s0.1,0.3,0.3,0.3
		c3.2,0,5.8-2.6,5.8-5.8C14.4,8.4,14.3,8.3,14.1,8.3C14.1,8.3,14.1,8.3,14.1,8.3z"/>
	<path id="Caminho_1712" d="M12.8,8.6c0-0.5-0.1-0.9-0.2-1.4c0,0,0,0,0-0.1C11.8,5,9.3,3.8,7.2,4.6C6,5.1,5.1,6,4.6,7.2
		c0,0,0,0,0,0.1c-0.3,0.9-0.3,1.9,0,2.8c0,0,0,0,0,0.1c0.8,2.2,3.2,3.3,5.4,2.5c1.2-0.4,2.1-1.3,2.5-2.5c0,0,0,0,0-0.1
		C12.7,9.5,12.8,9.1,12.8,8.6z M5.3,8.6c0-0.3,0-0.5,0.1-0.8h6.4c0.1,0.5,0.1,1.1,0,1.6H5.4C5.3,9.1,5.3,8.9,5.3,8.6L5.3,8.6z
		 M8.6,5.3c1.2,0,2.3,0.6,2.9,1.6H5.7C6.3,5.9,7.4,5.3,8.6,5.3L8.6,5.3z M8.6,11.9c-1.2,0-2.3-0.6-2.9-1.6h5.7
		C10.9,11.3,9.8,11.9,8.6,11.9L8.6,11.9z"/>
	<path id="Caminho_1713" d="M8.6,8.2c-0.2,0-0.3,0.1-0.3,0.3v0v0c0,0.2,0.2,0.3,0.3,0.3c0.2,0,0.3-0.2,0.3-0.3v0
		C8.9,8.4,8.8,8.2,8.6,8.2C8.6,8.2,8.6,8.2,8.6,8.2z"/>
	<path id="Caminho_1714" d="M3.9,2.1c0,0.2-0.2,0.3-0.3,0.3c-0.2,0-0.3-0.2-0.3-0.3c0-0.2,0.2-0.3,0.3-0.3C3.7,1.7,3.9,1.9,3.9,2.1
		C3.9,2.1,3.9,2.1,3.9,2.1z"/>
	<path id="Caminho_1715" d="M15.5,11.4c0,0.2-0.1,0.3-0.3,0.3c-0.2,0-0.3-0.1-0.3-0.3c0-0.2,0.1-0.3,0.3-0.3c0,0,0,0,0,0
		C15.4,11,15.5,11.2,15.5,11.4z"/>
</g>
</svg>
