<?xml version="1.0" encoding="utf-8"?>
<!-- Generator: Adobe Illustrator 16.0.2, SVG Export Plug-In . SVG Version: 6.00 Build 0)  -->
<!DOCTYPE svg PUBLIC "-//W3C//DTD SVG 1.1//EN" "http://www.w3.org/Graphics/SVG/1.1/DTD/svg11.dtd">
<svg version="1.1" id="Layer_1" xmlns="http://www.w3.org/2000/svg" xmlns:xlink="http://www.w3.org/1999/xlink" x="0px" y="0px"
	 width="187.989px" height="187.989px" viewBox="0 0 187.989 187.989" enable-background="new 0 0 187.989 187.989"
	 xml:space="preserve">
<g>
	<g>
		<path d="M37.836,24.638c-7.238-0.656-18.322-2.614-24.315,2.605c-1.98,1.725-3.52,6.944,0.67,7.07
			c3.407,0.102,6.798-1.027,10.258-1.093c3.673-0.071,7.328,0.265,11.001,0.027C39.738,32.969,43.654,25.165,37.836,24.638
			L37.836,24.638z"/>
	</g>
</g>
<g>
	<g>
		<path d="M13.275,30.471c-2.095,26.398-0.499,53.227,0.269,79.656c0.359,12.385,0.6,24.758,0.72,37.146
			c0.111,11.379-0.241,24.715,3.893,35.492c1.681,4.383,8.095,1.366,7.734-2.657c-1.044-11.632-2.617-22.993-2.784-34.722
			c-0.177-12.385-0.378-24.758-0.744-37.14c-0.784-26.518-0.799-52.979-1.016-79.498C21.298,22.829,13.63,25.999,13.275,30.471
			L13.275,30.471z"/>
	</g>
</g>
<g>
	<g>
		<path d="M13.959,181.428c23.215,8.036,48.449,5.357,72.574,5.436c13.689,0.045,27.378,0.22,41.066,0.374
			c13.231,0.149,27.113,1.354,40.243-0.528c3.625-0.52,5.717-6.913,1.2-7.61c-12.626-1.949-26.149-0.864-38.909-1.007
			c-13.037-0.146-26.073-0.302-39.11-0.365c-24.07-0.117-49.615,2.974-73.027-3.936C13.883,172.577,9.366,179.838,13.959,181.428
			L13.959,181.428z"/>
	</g>
</g>
<g>
	<g>
		<path d="M171.714,182.145c-1.357-25.792-0.686-51.748-0.232-77.557c0.245-13.939,0.504-27.879,0.753-41.819
			c0.199-11.146,1.447-23.085-0.098-34.157c-0.669-4.791-6.68-0.493-7.063,2.427c-1.434,10.897-0.655,22.461-0.869,33.444
			c-0.271,13.942-0.592,27.884-0.791,41.828c-0.368,25.771-1.006,51.698,0.826,77.43
			C164.62,189.085,171.942,186.459,171.714,182.145L171.714,182.145z"/>
	</g>
</g>
<g>
	<g>
		<path d="M146.409,32.524c7.336,0.386,15.561,0.572,22.772-0.962c2.526-0.537,6.104-6.426,2.037-7.307
			c-7.212-1.563-15.154-0.087-22.501-0.062C144.362,24.208,140.958,32.237,146.409,32.524L146.409,32.524z"/>
	</g>
</g>
<g>
	<g>
		<path d="M107.209,35.289c11.854-13.288,0.344-43.565-19.03-31.3C77.486,10.757,69.678,22.717,77.096,34.84
			c5.85,9.56,20.756,11.719,28.153,2.772c2.57-3.108,0.658-7.544-3.548-5.939c-2.976,1.135-5.065,2.521-8.391,2.299
			c-3.391-0.226-6.301-2.767-8.149-5.404c-4.967-7.089,0.783-13.792,7.168-17.178c9.253-4.907,13.554,13.492,9.086,19.037
			C97.601,35.163,103.175,39.812,107.209,35.289L107.209,35.289z"/>
	</g>
</g>
<g>
	<g>
		<path d="M75.712,23.295c-5.94-1.764-11.671-0.075-17.67,0.382c-2.492,0.19-4.61,1.708-5.3,4.207
			c-0.627,2.271,0.477,4.317,2.844,4.655c-2.037-0.291-0.28,0.156,0.355,0.361c2.742,0.886,6.254-2.336,5.353-5.202
			c-0.164-0.521-0.25-1.029-0.329-1.57c-1.793,2.137-3.586,4.273-5.379,6.41c5.302,0.541,10.553-2.255,15.83-1.118
			c2.348,0.506,4.497-0.619,5.63-2.759C77.938,26.976,77.992,23.972,75.712,23.295L75.712,23.295z"/>
	</g>
</g>
<g>
	<g>
		<path d="M53.158,31.439c-0.004,5.327-0.288,10.741,0.165,16.051c0.434,5.106,6.662,2.412,6.981-1.49
			c0.438-5.336,0.168-10.768,0.165-16.121C60.465,24.629,53.161,27.237,53.158,31.439L53.158,31.439z"/>
	</g>
</g>
<g>
	<g>
		<path d="M55.189,51.167c13.862-0.707,27.709-0.156,41.576-0.453c10.366-0.222,21.543,1.59,31.747-0.495
			c2.618-0.535,6.194-6.503,2.078-7.453c-9.871-2.277-21.171-1.5-31.257-1.321c-14.287,0.254-28.707-0.525-42.878,1.686
			C52.818,43.699,50.34,51.414,55.189,51.167L55.189,51.167z"/>
	</g>
</g>
<g>
	<g>
		<path d="M132.327,46.644c0.546-3.258,0.897-6.542,1.33-9.816c0.412-3.123,1.077-6.604,0.005-9.641
			c-1.471-4.167-6.297-1.521-7.292,1.556c-1.02,3.152-1.01,6.655-1.398,9.938c-0.381,3.22-0.58,6.328-0.075,9.549
			C125.581,52.595,131.815,49.702,132.327,46.644L132.327,46.644z"/>
	</g>
</g>
<g>
	<g>
		<path d="M107.341,32.387c7.359,0.009,16.389,1.811,23.266-1.382c2.954-1.372,4.302-6.446,0.257-7.187
			c-3.319-0.608-7.057,0.025-10.441,0.063c-3.612,0.041-7.196,0.018-10.802,0.282C105.476,24.467,101.899,32.38,107.341,32.387
			L107.341,32.387z"/>
	</g>
</g>
<g>
	<g>
		<path d="M132.828,80.28c-12.482-0.712-24.997-0.753-37.492-1.166c-6.589-0.217-13.174-0.528-19.757-0.899
			c-6.565-0.371-13.309-1.304-19.876-0.917c-3.005,0.177-7.493,6.373-2.978,7.446c12.192,2.896,25.792,2.382,38.272,2.82
			c13.254,0.465,26.552,0.756,39.801,0.041C134.49,87.404,137.726,80.559,132.828,80.28L132.828,80.28z"/>
	</g>
</g>
<g>
	<g>
		<path d="M54.013,118.5c13.168-1.396,26.148-3.563,39.413-3.971c6.445-0.198,12.896-0.203,19.344-0.188
			c6.742,0.016,13.741,0.571,20.411-0.55c3.561-0.599,5.566-6.636,1.174-7.44c-6.209-1.138-12.897-0.617-19.194-0.634
			c-7.098-0.019-14.192,0.047-21.286,0.273c-13.279,0.424-26.608,2.301-39.595,5.061C50.221,111.913,48.755,119.058,54.013,118.5
			L54.013,118.5z"/>
	</g>
</g>
<g>
	<g>
		<path d="M53.169,145.992c5.26-1.781,11.172-1.415,16.654-2.237c6.424-0.963,13.048-1.055,19.354-2.66
			c3.286-0.837,6.114-7.259,1.217-7.717c-6.674-0.623-13.657,0.564-20.255,1.521c-5.943,0.861-12.057,1.125-17.691,3.338
			C48.727,139.698,48.3,147.64,53.169,145.992L53.169,145.992z"/>
	</g>
</g>
<g>
	<g>
		<path d="M121.889,40.829c0.677-0.286,1.356-0.565,2.038-0.839c3.139-1.276,5.397-8.669,0.306-8.564
			c-3.715,0.076-7.256,1.371-10.785,2.41c-1.99,0.585-4.089,1.21-6.169,1.349c-1.726,0.116-3.076-0.736-4.765-0.901
			c-2.809-0.274-6.302,3.406-5.251,6.258c3.397,9.223,19.246,0.933,25.56-0.173c-0.263-2.825-0.525-5.649-0.788-8.474
			c-0.65,0.392-1.305,0.779-1.962,1.161C115.912,35.496,115.959,43.299,121.889,40.829L121.889,40.829z"/>
	</g>
</g>
<g>
	<g>
		<path d="M122.01,28.834c-0.21,0.184-0.442,0.332-0.678,0.48c-0.786,0.495-1.434,1.305-1.875,2.108
			c-0.571,1.037-0.75,2.435-0.125,3.493c0.578,0.979,1.853,1.459,2.945,1.147c1.534-0.438,2.666-1.333,3.782-2.428
			c1.085-1.063,1.521-3.135,0.732-4.47C125.79,27.466,123.345,27.66,122.01,28.834L122.01,28.834z"/>
	</g>
</g>
<g>
	<g>
		<path d="M78.256,40.002c0.379-0.318,0.792-0.573,1.238-0.765c3.875-0.788,6.738-8.12,1.368-8.678
			c-7.922-0.822-17.299,1.51-24.445,4.877c-3.56,1.678-4.655,9.38,0.747,8.036c7.17-1.785,13.83-3.755,21.268-4.147
			c-0.938-1.535-1.875-3.07-2.813-4.604c-0.101,0.261-0.203,0.522-0.304,0.783c0.601-0.884,1.201-1.769,1.801-2.653
			c-0.658,0.608-1.351,1.174-2.078,1.698C71.347,37.377,73.915,42.775,78.256,40.002L78.256,40.002z"/>
	</g>
</g>
<g>
	<g>
		<path d="M78.627,44.292c0.546,0.018,2.179,0.581,1.138-0.248c4.402,3.506,10.352-6.291,4.019-7.536
			c-6.992-1.375-17.578-0.822-23.986,2.464c-2.473,1.268-5.068,7.932-0.275,7.695c3.875-0.191,7.648-1.252,11.53-1.557
			c3.817-0.299,7.644-0.088,11.451-0.482c-0.238-2.565-0.477-5.129-0.715-7.694c1.049-0.608-0.568-0.025-1.121-0.008
			C76.866,37.046,73.784,44.137,78.627,44.292L78.627,44.292z"/>
	</g>
</g>
<g>
	<g>
		<path d="M116.455,33.674c0.589-0.526,1.137-1.016,1.79-1.461c3.11-2.118,3.026-8.48-1.777-7.538c-3.684,0.723-7.021,3.099-10,5.27
			c-2.881,2.1-6.514,4.817-8.021,8.131c-1.389,3.051,0.575,6.154,4.021,4.711c2.717-1.138,4.957-3.634,7.258-5.433
			c2.362-1.847,4.879-3.107,7.502-4.51c-1.253-2.096-2.505-4.192-3.757-6.289c-0.455,0.661-0.953,1.22-1.488,1.817
			C108.898,31.811,112.665,37.067,116.455,33.674L116.455,33.674z"/>
	</g>
</g>
<g>
	<g>
		<path d="M60.341,37.147c3.731-3.523,8.737-1.732,13.167-2.656c2.653-0.553,5.751-5.005,2.923-7.201
			c-2.711-2.106-7.106-1.297-10.232-0.673c-3.783,0.755-7.43,2.75-10.05,5.562C53.186,35.361,56.896,40.401,60.341,37.147
			L60.341,37.147z"/>
	</g>
</g>
<g>
	<g>
		<path d="M122.533,46.733c-0.589,0.061-0.311-0.054,0.832-0.346c0.864-0.411,1.492-1.026,2.12-1.73
			c1.891-2.122,1.915-6.461-1.634-6.725c-1.883-0.14-3.76,0.084-5.634,0.258c-2.033,0.188-4.085,0.103-6.104,0.402
			c-3.277,0.486-5.289,5.493-2.026,7.266c3.441,1.87,8.675,1.027,12.408,0.673c-1.132-1.862-2.264-3.724-3.396-5.585
			c-0.054,0.086-0.106,0.171-0.16,0.257c0.874-0.848,1.747-1.696,2.62-2.545c-0.623,0.326-1.216,0.696-1.786,1.106
			c-1.508,1.081-2.518,3.219-2.088,5.066C118.202,47.051,120.656,47.671,122.533,46.733L122.533,46.733z"/>
	</g>
</g>
</svg>
