<?xml version="1.0" encoding="utf-8"?>
<!-- Generator: Adobe Illustrator 16.0.2, SVG Export Plug-In . SVG Version: 6.00 Build 0)  -->
<!DOCTYPE svg PUBLIC "-//W3C//DTD SVG 1.1//EN" "http://www.w3.org/Graphics/SVG/1.1/DTD/svg11.dtd">
<svg version="1.1" id="Layer_1" xmlns="http://www.w3.org/2000/svg" xmlns:xlink="http://www.w3.org/1999/xlink" x="0px" y="0px"
	 width="198px" height="198px" viewBox="0 0 198 198" enable-background="new 0 0 198 198" xml:space="preserve">
<g>
	<path d="M54.964,79.915c0.037,0.104,0.075,0.208,0.123,0.31c6.873,14.75,20.51,21.52,35.25,22.051
		c3.538,0.595,7.138,0.855,10.738,0.743c1.383-0.043,2.678-0.932,3.603-2.098c0.715-0.159,1.429-0.327,2.14-0.512
		c19.521-5.075,34.12-18.413,37.673-38.625c3.339-18.994-3.663-39.202-19.805-50.3C106.318-1.144,81.482-2.697,64.405,12.831
		c-16.332,14.85-22.084,38.438-13.813,58.821C51.783,74.587,53.259,77.342,54.964,79.915z M91.1,11.041
		c21.938-0.356,41.315,15.69,44.786,37.115c1.43,8.827-0.155,18.221-4.302,26.112c-4.518,8.597-13.01,13.22-21.919,16.262
		c-5.553,1.896-11.329,2.871-16.931,2.789c-17.748-4.531-32.674-17.673-36.321-36.431C52.23,35.367,68.567,11.408,91.1,11.041z"/>
	<path d="M171.326,139.309c-14.808-15.312-37.268-20.367-57.742-21.145c-20.203-0.768-41.724-0.019-61.446,4.868
		c-16.162,4.005-29.639,13.479-36.416,29.017c-4.674,10.718-6.708,24.318-5.86,35.988c-0.624,2.189,0.013,4.463,2.821,4.463
		c54.556,0,109.111,0,163.667,0c1.032,0,1.994-0.586,2.827-1.23c0.113,1.232,0.239,2.383,0.383,3.615
		c0.727,6.256,9.693,1.139,9.806-3.408C189.819,172.915,184.437,152.865,171.326,139.309z M18.308,183.5
		c0.861-11,1.614-20.551,6.237-30.236c3.227-6.76,8.38-12.292,14.958-15.854c15.155-8.209,35.047-8.604,51.798-9.189
		c22.606-0.789,45.937,0.608,65.191,13.835c14.299,9.822,19.768,24.445,21.87,41.445C125.012,183.5,71.66,183.5,18.308,183.5z"/>
</g>
</svg>
