<?xml version="1.0" encoding="utf-8"?>
<!-- Generator: Adobe Illustrator 24.0.1, SVG Export Plug-In . SVG Version: 6.00 Build 0)  -->
<svg version="1.1" id="Camada_1" xmlns="http://www.w3.org/2000/svg" xmlns:xlink="http://www.w3.org/1999/xlink" x="0px" y="0px"
	 viewBox="0 0 20 15.3" style="enable-background:new 0 0 20 15.3;" xml:space="preserve">
<style type="text/css">
	.st0{fill:#E87288;}
	.st1{fill:#EA1F5A;}
</style>
<g id="Grupo_353" transform="translate(0 0)">
	<g id="speech-bubble" transform="translate(0 0)">
		<path id="Caminho_1650" class="st0" d="M16.4,8c0.8-0.8,1.3-1.9,1.3-3c0-2.6-2.6-4.6-5.5-4.6S6.8,2.4,6.8,5l5.3,4.6
			c0.8,0,1.6-0.1,2.4-0.4c0.6,0.7,1.5,1.1,2.4,1.1C16.4,9.7,16.2,8.8,16.4,8z"/>
		<path id="Caminho_1651" class="st1" d="M9.6,5.6c1.5,0.7,2.5,2.3,2.6,4c0,2.6-2.4,4.6-5.3,4.6c-0.8,0-1.6-0.1-2.4-0.4
			c-0.6,0.7-1.5,1.1-2.4,1.1c0.6-0.6,0.8-1.5,0.6-2.3c-0.8-0.8-1.3-1.9-1.3-3C1.3,7.1,3.9,5,6.8,5C7.8,5,8.7,5.2,9.6,5.6z"/>
		<path id="Caminho_1652" d="M9.5,3.3c-0.2,0-0.3,0.1-0.3,0.3S9.3,4,9.5,4c0.2,0,0.3-0.1,0.3-0.3S9.7,3.3,9.5,3.3L9.5,3.3z"/>
		<path id="Caminho_1653" d="M4,9.3c0.2,0,0.3-0.1,0.3-0.3S4.2,8.6,4,8.6S3.7,8.8,3.7,9S3.8,9.3,4,9.3L4,9.3z"/>
		<path id="Caminho_1654" d="M12.2,0c-3,0-5.4,2.1-5.6,4.7C3.7,4.8,1,6.9,1,9.6c0,1.2,0.5,2.3,1.3,3.2c0.2,0.7,0,1.4-0.5,1.9
			c-0.1,0.1-0.1,0.3,0,0.5c0.1,0.1,0.2,0.1,0.2,0.1c0.9,0,1.9-0.4,2.5-1c0.7,0.2,1.5,0.4,2.3,0.4c3,0,5.4-2.1,5.6-4.7
			c0.7,0,1.3-0.1,2-0.4c0.7,0.7,1.6,1,2.5,1c0.2,0,0.3-0.1,0.3-0.3c0-0.1,0-0.2-0.1-0.2c-0.5-0.5-0.7-1.2-0.5-1.9
			C17.5,7.3,18,6.2,18,5C18,2.1,15.1,0,12.2,0z M6.8,13.9c-0.8,0-1.5-0.1-2.3-0.4c-0.1-0.1-0.3,0-0.4,0.1c-0.4,0.4-0.9,0.7-1.5,0.9
			c0.3-0.6,0.4-1.3,0.2-2c0-0.1,0-0.1-0.1-0.1c-0.7-0.7-1.2-1.7-1.2-2.8c0-2.3,2.4-4.3,5.2-4.3c2.7,0,5,1.8,5,4.3
			C11.8,12,9.6,13.9,6.8,13.9L6.8,13.9z M16.2,7.8c0,0-0.1,0.1-0.1,0.1c-0.2,0.7-0.1,1.4,0.2,2c-0.6-0.1-1.1-0.4-1.5-0.9
			c-0.1-0.1-0.2-0.1-0.4-0.1c-0.6,0.2-1.3,0.4-2,0.4C12.4,8,11.7,6.8,10.7,6H15c0.2,0,0.3-0.1,0.3-0.3c0-0.2-0.1-0.3-0.3-0.3H9.7
			C8.9,4.9,8,4.7,7.2,4.7c0.4-2.4,2.5-4.1,5-4c2.8,0,5.2,2,5.2,4.3C17.3,6,16.9,7,16.2,7.8z"/>
		<path id="Caminho_1655" d="M9.5,8.6H5.3C5.1,8.6,5,8.8,5,9s0.1,0.3,0.3,0.3h4.2c0.2,0,0.3-0.1,0.3-0.3S9.7,8.6,9.5,8.6L9.5,8.6z"
			/>
		<path id="Caminho_1656" d="M9.5,10.6H4c-0.2,0-0.3,0.1-0.3,0.3s0.1,0.3,0.3,0.3h5.5c0.2,0,0.3-0.1,0.3-0.3S9.7,10.6,9.5,10.6z"/>
		<path id="Caminho_1657" d="M15,3.3h-4.2c-0.2,0-0.3,0.1-0.3,0.3S10.6,4,10.8,4H15c0.2,0,0.3-0.1,0.3-0.3S15.2,3.3,15,3.3z"/>
	</g>
</g>
</svg>
