<?xml version="1.0" encoding="utf-8"?>
<!-- Generator: Adobe Illustrator 24.0.1, SVG Export Plug-In . SVG Version: 6.00 Build 0)  -->
<svg version="1.1" id="Grupo_352" xmlns="http://www.w3.org/2000/svg" xmlns:xlink="http://www.w3.org/1999/xlink" x="0px" y="0px"
	 viewBox="0 0 20.5 19.4" style="enable-background:new 0 0 20.5 19.4;" xml:space="preserve">
<style type="text/css">
	.st0{fill:#EA1F5A;}
	.st1{fill:#E87288;}
</style>
<g id="promotion" transform="translate(0)">
	<path id="Caminho_1687" class="st0" d="M5.1,8.4l2.4,4.2l-3.5,2c-1.1,0.7-2.6,0.3-3.3-0.9c-0.7-1.1-0.3-2.6,0.9-3.3L5.1,8.4z"/>
	<path id="Caminho_1688" class="st0" d="M16.4,9.8c0.2,0.4,0.1,0.9-0.3,1.1C16,10.9,15.9,11,15.7,11L15.3,11l0-0.1l-5.2-8.9l0,0
		l0.3-0.4c0.2-0.4,0.7-0.5,1.1-0.3c0.1,0.1,0.2,0.2,0.3,0.3C19.7,15.5,9.6-1.9,16.4,9.8L16.4,9.8z"/>
	<path id="Caminho_1689" class="st0" d="M8.3,17.2c0.3,0.6,0.1,1.3-0.4,1.6c-0.6,0.3-1.3,0.1-1.6-0.4l0,0L4,14.6l2.1-1.2L8.3,17.2z"
		/>
	<path id="Caminho_1690" class="st1" d="M15.1,4.4l0.8,1.4l-1,1.5l-1.6-2.8L15.1,4.4z"/>
	<path id="Caminho_1691" class="st1" d="M15.3,11L15.3,11l-7.8,1.6L5.1,8.4l5-6.4l0,0L15.3,11z"/>
	<path id="Caminho_1692" d="M5.5,12.3c0.2-0.1,0.3-0.4,0.1-0.5c-0.1-0.2-0.4-0.3-0.5-0.1c-0.2,0.1-0.3,0.4-0.1,0.5
		C5,12.4,5.3,12.4,5.5,12.3C5.5,12.3,5.5,12.3,5.5,12.3z"/>
	<path id="Caminho_1693" d="M3.8,15.1l2,3.5c0.4,0.8,1.4,1,2.2,0.6c0.8-0.4,1-1.4,0.6-2.2l-1.2-2.1l1-0.6c0.2-0.1,0.3-0.4,0.1-0.5
		c0,0,0,0,0,0l-0.5-0.9l7.7-1.5c0.7,0,1.2-0.6,1.1-1.3c0-0.2-0.1-0.4-0.2-0.5l-1.3-2.3L16.3,6c0.1-0.1,0.1-0.3,0-0.4l-0.8-1.4
		C15.4,4,15.3,4,15.1,4l-1.5,0.1l-1.5-2.6c-0.2-0.4-0.6-0.6-1-0.6h0c-0.4,0-0.8,0.2-1,0.6L4.8,8.1l-3.4,2c-1.3,0.8-1.8,2.5-1.1,3.8
		C1,15.1,2.5,15.6,3.8,15.1L3.8,15.1z M7.9,17.4c0.2,0.4,0.1,0.9-0.3,1.1c-0.4,0.2-0.9,0.1-1.1-0.3l-2-3.5l1.4-0.8L7.9,17.4z
		 M7,14.2l-0.4-0.7l0.7-0.4l0.4,0.7L7,14.2z M14.9,4.8l0.6,1L15,6.5l-1-1.7L14.9,4.8z M10.7,1.9c0.1-0.2,0.4-0.2,0.5-0.1
		c0.1,0,0.1,0.1,0.1,0.1L16,10c0.1,0.2,0,0.4-0.1,0.5c-0.1,0-0.1,0.1-0.2,0.1c-0.1,0-0.1,0-0.2,0l-4.9-8.5
		C10.7,1.9,10.7,1.9,10.7,1.9L10.7,1.9z M10,2.7l4.6,8l-7,1.4L5.6,8.5L10,2.7z M1.1,13.5c-0.6-1-0.2-2.2,0.7-2.7c0,0,0,0,0,0L4.9,9
		l2,3.5l-3.1,1.8C2.8,14.8,1.6,14.5,1.1,13.5C1.1,13.5,1.1,13.5,1.1,13.5L1.1,13.5z"/>
	<path id="Caminho_1694" d="M4.2,12.6c-0.1-0.2-0.4-0.3-0.5-0.1c0,0,0,0,0,0L3,12.8c-0.2,0.1-0.4,0-0.5-0.1c0,0,0,0,0,0
		c-0.1-0.2-0.4-0.3-0.5-0.1c-0.2,0.1-0.3,0.4-0.1,0.5l0,0c0.3,0.6,1.1,0.8,1.6,0.4c0,0,0,0,0,0l0.7-0.4C4.3,13,4.4,12.8,4.2,12.6
		C4.2,12.6,4.2,12.6,4.2,12.6z"/>
	<path id="Caminho_1695" d="M19.9,1.8L17.7,3c-0.2,0.1-0.3,0.4-0.2,0.5c0.1,0.2,0.4,0.3,0.5,0.2l2.2-1.2c0.2-0.1,0.3-0.4,0.2-0.5
		C20.3,1.7,20.1,1.6,19.9,1.8L19.9,1.8z"/>
	<path id="Caminho_1696" d="M19.7,5.9l-1.5-0.4c-0.2-0.1-0.4,0.1-0.5,0.3c-0.1,0.2,0.1,0.4,0.3,0.5l1.5,0.4c0.2,0.1,0.4-0.1,0.5-0.3
		C20,6.2,19.9,6,19.7,5.9z"/>
	<path id="Caminho_1697" d="M15.8,0.3l-0.4,1.5c-0.1,0.2,0.1,0.4,0.3,0.5c0.2,0.1,0.4-0.1,0.5-0.3l0,0l0.4-1.6
		c0.1-0.2,0-0.4-0.3-0.5S15.9,0,15.8,0.3C15.8,0.3,15.8,0.3,15.8,0.3z"/>
</g>
</svg>
