<?xml version="1.0" encoding="utf-8"?>
<!-- Generator: Adobe Illustrator 24.0.1, SVG Export Plug-In . SVG Version: 6.00 Build 0)  -->
<svg version="1.1" id="Grupo_349" xmlns="http://www.w3.org/2000/svg" xmlns:xlink="http://www.w3.org/1999/xlink" x="0px" y="0px"
	 viewBox="0 0 17.1 17.1" style="enable-background:new 0 0 17.1 17.1;" xml:space="preserve">
<style type="text/css">
	.st0{fill:#EA1F5A;}
	.st1{fill:#832A80;}
	.st2{fill:#E87288;}
</style>
<g id="customer-support_1_" transform="translate(0 0)">
	<g id="Grupo_346" transform="translate(0 0)">
		<g id="Grupo_345">
			<g id="filled_outline_33_">
				<path id="Caminho_1679" class="st0" d="M16.2,13.4L12.8,10l-0.1,0.1c-0.2,0.2-0.6,0.2-0.9,0s-0.2-0.6,0-0.9l0,0L12,9.1l-0.9-0.9
					l-2.9,2.9L9.1,12l0.1-0.1c0.2-0.2,0.6-0.2,0.9,0s0.2,0.6,0,0.9L10,12.8l3.4,3.4c0.1,0.1,0.2,0.2,0.3,0.3l2.8-2.8
					C16.4,13.6,16.3,13.5,16.2,13.4z"/>
				<path id="Caminho_1680" class="st1" d="M16.5,13.7l-2.8,2.8c0.9,0.6,2.2,0.3,2.8-0.6C16.9,15.2,16.9,14.4,16.5,13.7z"/>
				<path id="Caminho_1681" class="st2" d="M3.7,2.6L3.4,1.4l-2-1.1L0.3,1.4l1.1,2l1.1,0.3l6.6,6.6l1.1-1.1L3.7,2.6z"/>
				<path id="Caminho_1682" class="st2" d="M16.7,2.7l-1.9,1.9L13.1,4l-0.6-1.7l1.9-1.9C12.8,0,11.1,1,10.7,2.6
					c-0.1,0.5-0.1,1,0,1.5l-6.5,6.5c-1.7-0.4-3.4,0.6-3.8,2.3c-0.4,1.7,0.6,3.4,2.3,3.8s3.4-0.6,3.8-2.3c0.1-0.5,0.1-1,0-1.6
					l6.5-6.5c1.7,0.4,3.4-0.6,3.8-2.3C16.9,3.7,16.9,3.2,16.7,2.7L16.7,2.7z M4.3,15.1H2.6l-0.9-1.4l0.9-1.4h1.7l0.9,1.4L4.3,15.1z"
					/>
				<path id="Caminho_1683" class="st1" d="M16.8,14.8c0-0.4-0.1-0.8-0.3-1.1l-0.8,0.8v2.1C16.4,16.3,16.8,15.6,16.8,14.8z"/>
				<path id="Caminho_1684" d="M0,1.6l1.1,2c0,0.1,0.1,0.1,0.2,0.1L2.4,4l3.7,3.6l0.4-0.4L2.8,3.5c0,0-0.1-0.1-0.1-0.1l-1-0.3
					l-1-1.7l0.8-0.8l1.7,1l0.3,1c0,0.1,0,0.1,0.1,0.1l3.7,3.7l0.4-0.4L4,2.4L3.7,1.4c0-0.1-0.1-0.1-0.1-0.2L1.6,0
					C1.5,0,1.3,0,1.2,0.1L0.1,1.2C0,1.3,0,1.5,0,1.6z"/>
				
					<rect id="Retângulo_247" x="4.1" y="8.3" transform="matrix(0.7071 -0.7071 0.7071 0.7071 -3.5458 8.5592)" width="8.9" height="0.6"/>
				<path id="Caminho_1685" d="M4.5,12.1C4.5,12,4.4,12,4.3,12H2.6c-0.1,0-0.2,0.1-0.2,0.1l-0.9,1.4c-0.1,0.1-0.1,0.2,0,0.3l0.9,1.4
					c0.1,0.1,0.1,0.1,0.2,0.1h1.7c0.1,0,0.2-0.1,0.2-0.1l0.9-1.4c0.1-0.1,0.1-0.2,0-0.3L4.5,12.1z M4.1,14.8H2.7L2,13.7l0.7-1.1h1.4
					l0.7,1.1L4.1,14.8z"/>
				<path id="Caminho_1686" d="M13.7,6.8c1.9,0,3.4-1.5,3.4-3.4c0-0.3,0-0.6-0.1-0.8c0-0.2-0.2-0.2-0.3-0.2c-0.1,0-0.1,0-0.1,0.1
					l-1.8,1.8l-1.4-0.5l-0.5-1.4l1.8-1.8c0.1-0.1,0.1-0.3,0-0.4c0,0-0.1-0.1-0.1-0.1c-1.8-0.5-3.7,0.6-4.1,2.5
					c-0.1,0.3-0.1,0.6-0.1,0.8c0,0.2,0,0.4,0.1,0.7l-6.3,6.2c-0.2,0-0.4-0.1-0.7-0.1c-1.9,0-3.4,1.5-3.4,3.4s1.5,3.4,3.4,3.4
					s3.4-1.5,3.4-3.4c0-0.2,0-0.4-0.1-0.7l1.5-1.5l0.7,0.7c0.1,0.1,0.3,0.1,0.4,0L9.5,12c0.1-0.1,0.3-0.1,0.5,0
					c0.1,0.1,0.1,0.3,0,0.4l0,0l-0.1,0.1c-0.1,0.1-0.1,0.3,0,0.4l3.4,3.4c0.9,0.9,2.3,0.9,3.3,0c0.9-0.9,0.9-2.3,0-3.3l0,0L13,9.8
					c-0.1-0.1-0.3-0.1-0.4,0l-0.1,0.1c-0.1,0.1-0.3,0.1-0.5,0c-0.1-0.1-0.1-0.3,0-0.4l0,0l0.1-0.1c0.1-0.1,0.1-0.3,0-0.4l-0.7-0.7
					L13,6.8C13.3,6.8,13.5,6.8,13.7,6.8z M14.8,16.5c-0.2,0-0.4,0-0.6-0.1l2.2-2.2c0.3,0.9-0.1,1.9-1,2.2
					C15.2,16.5,15,16.5,14.8,16.5z M11.6,9.1c-0.3,0.4-0.3,0.9,0.1,1.3c0.3,0.3,0.8,0.3,1.2,0l3.2,3.2c0,0,0.1,0.1,0.1,0.1l-2.4,2.4
					c0,0-0.1-0.1-0.1-0.1l-3.2-3.2c0.3-0.4,0.3-0.9-0.1-1.3c-0.3-0.3-0.8-0.3-1.2,0l-0.5-0.5l2.5-2.4L11.6,9.1z M12.7,6.3l-6.5,6.5
					c-0.1,0.1-0.1,0.2-0.1,0.3c0.4,1.5-0.5,3.1-2.1,3.5C2.6,16.9,1,16,0.6,14.4s0.5-3.1,2.1-3.5c0.5-0.1,1-0.1,1.4,0
					c0.1,0,0.2,0,0.3-0.1l6.5-6.5c0.1-0.1,0.1-0.2,0.1-0.3c-0.4-1.5,0.5-3.1,2-3.5c0.3-0.1,0.6-0.1,0.9-0.1l-1.5,1.5
					c-0.1,0.1-0.1,0.2-0.1,0.3l0.6,1.7c0,0.1,0.1,0.2,0.2,0.2l1.7,0.6c0.1,0,0.2,0,0.3-0.1l1.5-1.5c0,0.1,0,0.1,0,0.2
					c0,1.6-1.3,2.8-2.8,2.9c-0.2,0-0.5,0-0.7-0.1C12.9,6.2,12.8,6.2,12.7,6.3L12.7,6.3z"/>
				
					<rect id="Retângulo_248" x="12.8" y="11.1" transform="matrix(0.7071 -0.7071 0.7071 0.7071 -5.4362 13.1225)" width="0.6" height="4"/>
			</g>
		</g>
	</g>
</g>
</svg>
